PathFileType	4	(X/Y/Z)	/Users/niels/Desktop/University/Third Semester/Perception and Action/Exam/Gymnastics Motion Tracking/Code for Gym Tracking/Analyzed Data/Webcam_Backflip/id1_2_trajectory_Sports2D/id1_2_trajectory_Sports2D_px_person00.trc
DataRate	CameraRate	NumFrames	NumMarkers	Units	OrigDataRate	OrigDataStartFrame	OrigNumFrames
29.87551867219917	29.87551867219917	12	22	m	29.87551867219917	150	241
Frame#	Time	Hip			RHip			RKnee			RAnkle			RBigToe			RSmallToe			RHeel			LHip			LKnee			LAnkle			LBigToe			LSmallToe			LHeel			Neck			Head			Nose			RShoulder			RElbow			RWrist			LShoulder			LElbow			LWrist		
		X1	Y1	Z1	X2	Y2	Z2	X3	Y3	Z3	X4	Y4	Z4	X5	Y5	Z5	X6	Y6	Z6	X7	Y7	Z7	X8	Y8	Z8	X9	Y9	Z9	X10	Y10	Z10	X11	Y11	Z11	X12	Y12	Z12	X13	Y13	Z13	X14	Y14	Z14	X15	Y15	Z15	X16	Y16	Z16	X17	Y17	Z17	X18	Y18	Z18	X19	Y19	Z19	X20	Y20	Z20	X21	Y21	Z21	X22	Y22	Z22
150	5.020833333333333	0.9251204864158307	-0.580692879402033	0.0	0.9207131152405835	-0.5787218097058724	0.0	0.9350704527914278	-0.6893623740347504	0.0	0.9241936318104332	-0.8116508970758223	0.0	0.9724582188612912	-0.8356255583083864	0.0	0.9630724963124787	-0.839188703614956	0.0	0.9107552458184603	-0.8290976854090697	0.0	0.9354692901124152	-0.5799533318442351	0.0	0.9446064424244665	-0.6835272871927123	0.0	0.9131633129740373	-0.7889676735201797	0.0	0.9602952756953524	-0.8127384955044673	0.0	0.951943344788379	-0.8064388606689871	0.0	0.8982170327705699	-0.8055561717094687	0.0	0.9740290668370933	-0.42348145264815873	0.0	1.0327747743708264	-0.37238106710430763	0.0	1.0210814041679117	-0.41766195783161575	0.0	0.9491790624681175	-0.4335941619131642	0.0	0.9072280104612003	-0.504779843338965	0.0	0.934114057724827	-0.5810854356339449	0.0	0.9689607782413927	-0.44043890399677543	0.0	0.9387106416787415	-0.5124581607824805	0.0	0.9562859888356956	-0.5742963478741506	0.0
151	5.054305555555556	0.9271923597912319	-0.5819063542556386	0.0	0.9225441749629605	-0.5795608962433706	0.0	0.934632340222252	-0.6904115242149267	0.0	0.9242703956132843	-0.8116318927671146	0.0	0.9730058044965283	-0.8357856163288367	0.0	0.9634558068118478	-0.8394043338731513	0.0	0.9106765378459559	-0.8291892872611306	0.0	0.9378983399622332	-0.5807292049118271	0.0	0.9421833558288824	-0.6855098034745569	0.0	0.9147703568555489	-0.7920992942297743	0.0	0.9623305329934477	-0.8160862578358582	0.0	0.9544412446187157	-0.8090409882808034	0.0	0.9000447411959933	-0.8087109716560381	0.0	0.9734544408063961	-0.4237728552508977	0.0	1.03019858683556	-0.370617940061445	0.0	1.0198948656011673	-0.4165201206269742	0.0	0.9480126111190254	-0.4338512115820179	0.0	0.9058084748422806	-0.5046498222839583	0.0	0.9355980977350277	-0.5789304211886379	0.0	0.9697767784003307	-0.44140295077017927	0.0	0.940462512942568	-0.5131040336047963	0.0	0.9570997190644179	-0.5765294307897177	0.0
152	5.087777777777778	0.9293736073391544	-0.5842136575280651	0.0	0.9246903830975196	-0.5816429640302694	0.0	0.9344435787199141	-0.6924171123278152	0.0	0.9241986108503524	-0.812764914649879	0.0	0.972997955760117	-0.8367143658985401	0.0	0.9632579931014899	-0.8404082252567525	0.0	0.9104593039744272	-0.830352961229636	0.0	0.9401872820789249	-0.5826487098179761	0.0	0.9396636973625039	-0.6885635673005225	0.0	0.9154858570491582	-0.7960049883774818	0.0	0.9635076356754674	-0.8201056503747478	0.0	0.9559562953342831	-0.8125878903033943	0.0	0.9010452342135614	-0.8125226518912547	0.0	0.9726617026330364	-0.4251561077962753	0.0	1.026871224231378	-0.36979405994260167	0.0	1.0182342354690443	-0.41612367816595147	0.0	0.9465116261173467	-0.43559405583548955	0.0	0.9047505151668901	-0.5062144086171808	0.0	0.9369708406382677	-0.5782808137210108	0.0	0.9703962912022366	-0.4435603732646199	0.0	0.942243112600013	-0.5149790045997523	0.0	0.9584578351499279	-0.5794213249648792	0.0
153	5.12125	0.9315044552037414	-0.5873197825035517	0.0	0.9268825872353593	-0.5845886557943368	0.0	0.9344997132265347	-0.6950396598887467	0.0	0.9239001945463964	-0.8146147688308497	0.0	0.972192182255013	-0.837931887775789	0.0	0.9623862800666281	-0.8417006281875676	0.0	0.9100095916231817	-0.8321955079769664	0.0	0.9423560881120555	-0.5854394328952491	0.0	0.9375846298300474	-0.6922413719623695	0.0	0.915698723644941	-0.8003365787585911	0.0	0.9639695058581194	-0.8242843218246598	0.0	0.9567031494635704	-0.8167744240026071	0.0	0.9015235464640377	-0.816735020932244	0.0	0.9717787211580882	-0.42736525783851254	0.0	1.0230889501258347	-0.36983338131717913	0.0	1.0161010927179355	-0.4162773979359869	0.0	0.9447385258695105	-0.43855108759435846	0.0	0.9042557856560901	-0.5091905322459391	0.0	0.9381338146228081	-0.5792108012504539	0.0	0.9708886937148496	-0.44669924753015366	0.0	0.9440587194547675	-0.5178796013765099	0.0	0.960177473688406	-0.5830008649809754	0.0
154	5.154722222222222	0.9334382365954982	-0.5908146628311401	0.0	0.9288427519188834	-0.5879248063531902	0.0	0.9347009862526189	-0.6978792114972306	0.0	0.9233711299130264	-0.816652229913343	0.0	0.9705120619430565	-0.8389960022935405	0.0	0.9608615998074947	-0.8428209395112801	0.0	0.9093326817600008	-0.8342093953409172	0.0	0.9444421126315006	-0.5887035249544532	0.0	0.9363012538159498	-0.6960089898183008	0.0	0.9157142122008068	-0.8046233495867986	0.0	0.9637468246214269	-0.8281844532937114	0.0	0.9568146553376136	-0.8211877037703504	0.0	0.9017048220489898	-0.8209765458059695	0.0	0.9709227858161603	-0.43001897604132183	0.0	1.0190954519551665	-0.3705497895039231	0.0	1.0134776630515234	-0.41670131440968594	0.0	0.942749023877607	-0.4423126238300713	0.0	0.9043619367390119	-0.5131305102908316	0.0	0.9389675887394996	-0.5816162220273845	0.0	0.9713430694493864	-0.4504843497277466	0.0	0.9460496050943699	-0.5215384606927507	0.0	0.962132947006797	-0.587223812572402	0.0
155	5.188194444444444	0.9351211009007169	-0.5942156961351421	0.0	0.9304028398498442	-0.5911599572061308	0.0	0.9349087589536403	-0.7005476971780394	0.0	0.9226949235728515	-0.8184240639176941	0.0	0.9681073459324064	-0.8397976929295462	0.0	0.958811573730607	-0.8436196160332308	0.0	0.9085941569211838	-0.8359617146690862	0.0	0.9464540364768728	-0.5919474921965503	0.0	0.9358346944093464	-0.6993952133638937	0.0	0.9157396816408128	-0.8084595405832912	0.0	0.9628880056589068	-0.8315696116613026	0.0	0.9563967165761253	-0.8254808576799344	0.0	0.9017683410032247	-0.8248859729916401	0.0	0.970163605928259	-0.43270818604321987	0.0	1.0150573169005457	-0.37162671650742907	0.0	1.0103649439952902	-0.41708178193155093	0.0	0.9406281008030688	-0.44637293714001686	0.0	0.9049402458423468	-0.5174762430553606	0.0	0.939302430045063	-0.5851318178163193	0.0	0.9718438412750121	-0.4544900995519421	0.0	0.9483644985108528	-0.5256254955821299	0.0	0.9642432861828591	-0.5918312967857273	0.0
156	5.221666666666667	0.9365932213941621	-0.5970577532066405	0.0	0.931537229988565	-0.5938893254702192	0.0	0.9350067002140359	-0.7027543061061245	0.0	0.9220373960792161	-0.8197294786545656	0.0	0.9653418392797035	-0.8406030819987914	0.0	0.9564844081919787	-0.8443078704883884	0.0	0.9080906896967293	-0.8372631570726919	0.0	0.9483428595973397	-0.5947002348147863	0.0	0.9359546652300671	-0.7020938633469873	0.0	0.9158505530118278	-0.8115973054900614	0.0	0.9615577097847201	-0.8344224084003207	0.0	0.9556013686196754	-0.8293882957248464	0.0	0.9018240240049441	-0.8281725276967609	0.0	0.9694795414904506	-0.4350758396506989	0.0	1.0110947021794112	-0.372658362067883	0.0	1.0068252254173498	-0.4171599562055192	0.0	0.9384925666836683	-0.45018559934475555	0.0	0.9057532817342194	-0.5216285460440891	0.0	0.9389648491774132	-0.5891878833218815	0.0	0.972421452665715	-0.4582328930606688	0.0	0.9509894978564323	-0.5297014611210652	0.0	0.966397659220958	-0.596330753804279	0.0
157	5.255138888888889	0.9379428235298605	-0.5989860432579036	0.0	0.9323178820842175	-0.5958452710418883	0.0	0.9349553544246152	-0.7043023801616173	0.0	0.9215800205780948	-0.820583074339509	0.0	0.9626629693744048	-0.841730561013047	0.0	0.9542138436277339	-0.8451798356718477	0.0	0.9081040176249181	-0.8381050255084632	0.0	0.9500381305590518	-0.5966345129700135	0.0	0.9363897660021735	-0.7039422742929299	0.0	0.9160218423290549	-0.8139106003132778	0.0	0.9600656355872913	-0.8368054691951388	0.0	0.9546594787055651	-0.8326622905019504	0.0	0.901922213438667	-0.8306224515941723	0.0	0.9687710000628206	-0.4368272484942946	0.0	1.00730963579238	-0.3732274747103858	0.0	1.0030127601543126	-0.4167685769530459	0.0	0.9364416715927595	-0.4532675953698324	0.0	0.9065109516955885	-0.5250389311051754	0.0	0.9378412785790945	-0.5931463607537428	0.0	0.9730389776969756	-0.4612250974284071	0.0	0.9537142693166996	-0.533233821203275	0.0	0.9684379368808944	-0.6001186984707881	0.0
158	5.288611111111111	0.939235758449197	-0.5998254077876553	0.0	0.9328507563279824	-0.5968723329795309	0.0	0.9348139144066808	-0.705019548885394	0.0	0.9214152501865369	-0.8209678753696689	0.0	0.9604842834339518	-0.8431396416904801	0.0	0.9523410078885245	-0.8462372211100954	0.0	0.9087199624095549	-0.8384292305637134	0.0	0.9514921220704132	-0.5975966626481982	0.0	0.9369599685340606	-0.7048154217507062	0.0	0.9162129313222214	-0.8152921857495776	0.0	0.9587618874630405	-0.8386193691106449	0.0	0.9538361788046785	-0.8350066957792884	0.0	0.9020878272459943	-0.8320983059167979	0.0	0.9679328396936387	-0.43769991083540133	0.0	1.0037634877158814	-0.37299899698245603	0.0	0.9991385198040252	-0.41580493390342504	0.0	0.934505651426031	-0.4552793837488285	0.0	0.9069222054024364	-0.5273046677489619	0.0	0.9359029324636511	-0.5964099239172503	0.0	0.9736248338346262	-0.4630682951127256	0.0	0.9562342768046195	-0.5357050773636108	0.0	0.970205091585213	-0.6026692504923987	0.0
159	5.3220833333333335	0.9404383319754175	-0.599579977941543	0.0	0.933217288110506	-0.5969037927991684	0.0	0.9347009800472944	-0.7047549688204134	0.0	0.9215283505023784	-0.8207029226448027	0.0	0.9591826472067155	-0.8443728530136186	0.0	0.9511715829897259	-0.8470967239334688	0.0	0.9097724269271276	-0.8380729547194309	0.0	0.952653042117336	-0.5975879924861052	0.0	0.9375575291194317	-0.7045929827517812	0.0	0.9163860031479141	-0.8156228589259469	0.0	0.9578795160292695	-0.8395344290717266	0.0	0.9533500755888947	-0.8361042076446502	0.0	0.9023214758580461	-0.8325691982916653	0.0	0.9669098507739214	-0.4374902189636004	0.0	1.0004371681743705	-0.37182244123500563	0.0	0.9953742288925731	-0.41420676941179957	0.0	0.9326396747763668	-0.4560422943512308	0.0	0.9067660537783808	-0.528218505810551	0.0	0.9332042300314705	-0.598501277403289	0.0	0.9741167902227184	-0.46355968672220904	0.0	0.9582842100411382	-0.5367761958699996	0.0	0.971576390843533	-0.6036742758510628	0.0
160	5.355555555555556	0.9414256922682555	-0.5983530120014602	0.0	0.9334517237546861	-0.5959748076011773	0.0	0.9347067196700526	-0.7034708572982639	0.0	0.9218641328219775	-0.8196166778150836	0.0	0.959076342008105	-0.8448850473328563	0.0	0.9509439910795523	-0.8472711799784849	0.0	0.9109656591194754	-0.8369543024794567	0.0	0.9534372579554444	-0.5967310411665186	0.0	0.9380669705815391	-0.7032606118842284	0.0	0.9164735606929953	-0.8148651366725085	0.0	0.9574960853478317	-0.8392388408550163	0.0	0.9533302942974173	-0.8357865982905549	0.0	0.9025793470826488	-0.8321256590084798	0.0	0.9656975506839394	-0.4361464927337855	0.0	0.9972309120670283	-0.3697718577545922	0.0	0.9918068021841014	-0.4119738190506974	0.0	0.9307557885013026	-0.455548330324552	0.0	0.9059531204587221	-0.5277535476951447	0.0	0.929885650711517	-0.5991495245893762	0.0	0.9744833478676104	-0.4627493759499215	0.0	0.9597155125106966	-0.5364032952459661	0.0	0.9725003606089607	-0.6030776679937778	0.0
161	5.389027777777778	0.9420886243710356	-0.5963132065913661	0.0	0.9335597915026445	-0.5942415921835204	0.0	0.9348278674390212	-0.7013513895328131	0.0	0.9223304223844637	-0.8177700395483942	0.0	0.9602287072037061	-0.8443419761111489	0.0	0.9517082626302555	-0.8464750660507178	0.0	0.9120358612434406	-0.8351983831611484	0.0	0.9537856301272396	-0.5952209111149734	0.0	0.9383372790652575	-0.7010491812610682	0.0	0.9164060791771474	-0.8131797877350071	0.0	0.9575983582552369	-0.8377068382045717	0.0	0.9538050545544132	-0.8341648617150802	0.0	0.9028000451383056	-0.830953748832506	0.0	0.9643258877807671	-0.43383205251154305	0.0	0.9940289099515335	-0.3670640777489961	0.0	0.9884621435844324	-0.4091937174509246	0.0	0.9287701249216688	-0.4539690573000256	0.0	0.9045243695374708	-0.5260461365596818	0.0	0.9261966090379791	-0.5983723830194626	0.0	0.974719941965747	-0.46090028856906035	0.0	0.960505786130941	-0.5347996824228121	0.0	0.9730413055144588	-0.6010488267528299	0.0
